<?xml version="1.0" standalone="no"?>
<!DOCTYPE svg PUBLIC "-//W3C//DTD SVG 20010904//EN"
 "http://www.w3.org/TR/2001/REC-SVG-20010904/DTD/svg10.dtd">
<svg version="1.0"
    xmlns="http://www.w3.org/2000/svg" width="256.000000pt" height="256.000000pt" viewBox="0 0 256.000000 256.000000" preserveAspectRatio="xMidYMid meet">

    <g transform="translate(0.000000,256.000000) scale(0.100000,-0.100000)" fill="#3a3a3a" stroke="none">
        <path d="M500 2544 c-234 -50 -436 -254 -485 -489 -22 -103 -22 -1447 0 -1550
50 -237 252 -439 491 -490 102 -22 1445 -22 1549 0 181 38 349 168 433 335 72
144 72 137 72 930 0 793 0 786 -72 930 -84 167 -252 297 -433 335 -100 21
-1457 21 -1555 -1z m1484 -204 c183 -30 326 -173 356 -356 13 -78 13 -1330 0
-1408 -30 -183 -173 -326 -356 -356 -78 -13 -1330 -13 -1408 0 -183 30 -326
173 -356 356 -13 78 -13 1330 0 1408 29 178 174 326 347 356 70 11 1346 12
1417 0z"/>
        <path d="M1224 1901 c-48 -29 -54 -61 -54 -297 l0 -214 -215 0 c-240 0 -272
-6 -299 -59 -20 -38 -20 -64 0 -102 27 -53 59 -59 299 -59 l215 0 0 -215 c0
-240 6 -272 59 -299 38 -20 64 -20 102 0 53 27 59 59 59 299 l0 215 215 0
c240 0 272 6 299 59 20 38 20 64 0 102 -27 53 -59 59 -299 59 l-215 0 0 215
c0 240 -6 272 -59 299 -40 21 -69 20 -107 -3z"/>
    </g>
</svg>
